<svg xmlns="http://www.w3.org/2000/svg" width="512" height="512" viewBox="0 0 579.148 579.148"><path d="M434.924 38.847C390.561 12.954 342.107.01 289.574.01c-52.54 0-100.992 12.944-145.356 38.837C99.854 64.741 64.725 99.87 38.837 144.228 12.944 188.597 0 237.049 0 289.584c0 58.568 15.955 111.732 47.883 159.486 31.922 47.768 73.771 83.08 125.558 105.949-1.01-26.896.625-49.137 4.902-66.732l37.326-157.607c-6.285-12.314-9.425-27.645-9.425-45.999 0-21.365 5.404-39.217 16.212-53.538 10.802-14.333 24.003-21.5 39.59-21.5 12.564 0 22.246 4.143 29.034 12.448 6.787 8.292 10.184 18.727 10.184 31.292 0 7.797-1.451 17.289-4.334 28.47-2.895 11.187-6.665 24.13-11.31 38.837-4.651 14.701-7.98 26.451-9.994 35.252-3.525 15.33-.63 28.463 8.672 39.4 9.295 10.936 21.616 16.4 36.952 16.4 26.898 0 48.955-14.951 66.176-44.865 17.217-29.914 25.826-66.236 25.826-108.973 0-32.925-10.617-59.701-31.859-80.312-21.242-20.606-50.846-30.918-88.795-30.918-42.486 0-76.862 13.642-103.123 40.906-26.267 27.277-39.401 59.896-39.401 97.84 0 22.625 6.414 41.609 19.229 56.941 4.272 5.029 5.655 10.428 4.149 16.205-.508 1.512-1.511 5.281-3.017 11.309-1.505 6.029-2.515 9.934-3.017 11.689-2.014 8.049-6.787 10.564-14.333 7.541-19.357-8.043-34.064-21.99-44.113-41.85-10.055-19.854-15.08-42.852-15.08-68.996 0-16.842 2.699-33.685 8.103-50.527s13.819-33.115 25.264-48.832c11.432-15.698 25.135-29.596 41.102-41.659 15.961-12.069 35.38-21.738 58.256-29.04 22.871-7.283 47.51-10.93 73.904-10.93 35.693 0 67.744 7.919 96.146 23.751 28.402 15.839 50.086 36.329 65.043 61.463 14.951 25.135 22.436 52.026 22.436 80.692 0 37.705-6.541 71.641-19.607 101.807-13.072 30.166-31.549 53.855-55.43 71.072-23.887 17.215-51.035 25.826-81.445 25.826-15.336 0-29.664-3.58-42.986-10.748-13.33-7.166-22.503-15.648-27.528-25.453-11.31 44.486-18.097 71.018-20.361 79.555-4.78 17.852-14.584 38.457-29.413 61.836 26.897 8.043 54.296 12.062 82.198 12.062 52.534 0 100.987-12.943 145.35-38.83 44.363-25.895 79.492-61.023 105.387-105.393 25.887-44.365 38.838-92.811 38.838-145.352 0-52.54-12.951-100.985-38.838-145.355-25.889-44.334-61.024-79.463-105.387-105.357z" fill="#FFF"/></svg>