<svg xmlns="http://www.w3.org/2000/svg" viewBox="-3 1 14 13"><path fill="#FFF" d="M9.2 12l-1.1 1.1c-.4.4-1 .6-1.6.6-.6 0-1.2-.2-1.6-.7l-1.6-1.6c-.4-.4-.6-1-.6-1.6 0-.6.3-1.2.7-1.6l-.8-.6c-.4.4-1 .7-1.6.7-.6 0-1.2-.3-1.6-.7L-2.2 6c-.4-.4-.7-1-.7-1.6 0-.6.2-1.2.7-1.6l1.1-1.1c.5-.5 1-.7 1.6-.7.6 0 1.2.2 1.6.7l1.6 1.6c.4.4.6 1 .6 1.6 0 .6-.3 1.2-.7 1.6l.7.7c.4-.4 1-.7 1.6-.7.6 0 1.2.2 1.6.7l1.6 1.6c.4.4.7 1 .7 1.6.1.6-.2 1.1-.6 1.6zM2.7 4.3L1.1 2.7c-.2-.1-.4-.2-.6-.2s-.4.1-.5.2l-1.1 1.1c-.2.2-.3.4-.3.6 0 .2.1.4.2.5L.4 6.5c.2.2.4.2.6.2.2 0 .4-.1.6-.2-.3-.3-.6-.5-.6-.9s.3-.8.8-.8c.4 0 .6.3.9.6.2-.2.3-.3.3-.6-.1-.1-.2-.3-.3-.5zm5.5 5.5L6.5 8.2C6.4 8.1 6.2 8 6 8s-.4.1-.6.3c.3.2.6.4.6.8s-.3.8-.8.8c-.4 0-.6-.3-.9-.6-.1.2-.2.3-.2.6 0 .2.1.4.2.5L5.9 12c.1.1.3.2.5.2s.5 0 .6-.2l1.1-1.1c.1-.1.2-.3.2-.5.1-.2 0-.4-.1-.6z"/></svg>