<svg xmlns="http://www.w3.org/2000/svg" width="485.213" height="485.212" viewBox="0 0 485.213 485.212"><path d="M363.908 0H121.304C104.54 0 90.978 13.58 90.978 30.327v424.56c0 16.764 13.565 30.326 30.327 30.326H363.91c16.764 0 30.326-13.562 30.326-30.326V30.327C394.236 13.58 380.673 0 363.908 0zm-174.37 30.327h106.138c4.205 0 7.58 3.39 7.58 7.58a7.568 7.568 0 0 1-7.58 7.583h-106.14a7.57 7.57 0 0 1-7.58-7.584c0-4.19 3.376-7.58 7.58-7.58zm53.068 439.722c-12.557 0-22.745-10.185-22.745-22.743 0-12.56 10.19-22.748 22.746-22.748 12.56 0 22.742 10.187 22.742 22.747s-10.183 22.742-22.742 22.742zm121.302-60.654H121.304V75.816h242.604v333.58z"/></svg>