<svg xmlns="http://www.w3.org/2000/svg" width="432.544" height="432.544" viewBox="0 0 432.544 432.544"><path d="M0 313.775v118.77h118.77l237.542-237.54L237.54 76.23 0 313.775zM103.638 396l-30.55.003v-36.546H36.545v-30.553l25.98-25.98 67.094 67.09L103.637 396zm143.045-271.23c4.182 0 6.276 2.095 6.276 6.28 0 1.906-.665 3.52-2 4.856L96.214 290.65c-1.333 1.33-2.952 1.996-4.854 1.996-4.184 0-6.28-2.098-6.28-6.28 0-1.905.667-3.52 1.998-4.855L241.825 126.77c1.33-1.332 2.948-1.998 4.858-1.998zm175.293-47.116l-67.09-66.806C347.652 3.618 338.99 0 328.902 0 318.62 0 310.06 3.62 303.21 10.848l-47.394 47.11 118.773 118.77 47.393-47.393c7.042-7.043 10.56-15.608 10.56-25.697-.003-9.895-3.52-18.558-10.567-25.984z"/></svg>