<svg xmlns="http://www.w3.org/2000/svg" viewBox="0 0 400.548 400.548"><path d="M383.86 99.79a27.04 27.04 0 0 0-29.466 5.86l-51.507 51.512v-31.397c0-22.36-18.13-40.49-40.493-40.49h-221.9C18.13 85.274 0 103.404 0 125.764v149.018c0 22.36 18.13 40.49 40.493 40.49h221.9c22.364 0 40.494-18.13 40.494-40.49v-31.398l51.507 51.512a27.04 27.04 0 0 0 19.126 7.924 27.04 27.04 0 0 0 27.028-27.04V124.767A27.037 27.037 0 0 0 383.86 99.79zM190.31 210.764l-55.192 42.403a13.21 13.21 0 0 1-8.06 2.738 13.223 13.223 0 0 1-13.226-13.228V157.87c0-5.04 2.86-9.64 7.38-11.864a13.22 13.22 0 0 1 13.905 1.375l55.19 42.403a13.228 13.228 0 0 1 .002 20.98z"/></svg>