<svg xmlns="http://www.w3.org/2000/svg" width="47.001" height="47.001" viewBox="0 0 47.001 47.001"><path d="M44.845 42.718H2.135a2.136 2.136 0 1 0 0 4.272h42.71a2.135 2.135 0 1 0 0-4.272zm-40.04-5.553a2.136 2.136 0 1 0 0 4.273h37.37a2.136 2.136 0 0 0 0-4.273h-.533v-19.22h.533a1.066 1.066 0 1 0 0-2.134H4.805a1.067 1.067 0 1 0 0 2.135h.534v19.22h-.535zm32.565-19.22v19.22h-6.406v-19.22h6.406zm-10.678 0v19.22h-6.406v-19.22h6.406zm-17.083 0h6.405v19.22H9.61v-19.22zM2.136 13.89h42.728a2.135 2.135 0 0 0 .694-4.156L24.368.2a2.14 2.14 0 0 0-1.752 0L1.26 9.807a2.135 2.135 0 0 0 .876 4.083z"/></svg>