<svg xmlns="http://www.w3.org/2000/svg" width="548.172" height="548.172" viewBox="0 0 548.172 548.172"><path d="M534.75 49.965c-8.945-8.945-19.694-13.422-32.26-13.422H45.68c-12.56 0-23.312 4.477-32.263 13.422C4.47 58.913 0 69.663 0 82.225V392.86c0 12.565 4.47 23.314 13.417 32.264 8.95 8.945 19.702 13.414 32.264 13.414H201c0 7.23-1.525 14.66-4.57 22.27-3.045 7.613-6.09 14.272-9.137 19.98-3.042 5.715-4.565 9.897-4.565 12.56 0 4.948 1.807 9.24 5.424 12.847 3.615 3.62 7.898 5.435 12.847 5.435h146.178c4.95 0 9.233-1.813 12.848-5.435 3.62-3.606 5.427-7.898 5.427-12.847 0-2.468-1.526-6.61-4.57-12.415-3.047-5.8-6.093-12.566-9.135-20.267-3.046-7.71-4.57-15.085-4.57-22.128H502.5c12.56 0 23.308-4.47 32.253-13.414 8.95-8.95 13.423-19.698 13.423-32.265V82.225c.003-12.563-4.474-23.313-13.423-32.26zm-23.123 269.803c0 2.475-.903 4.613-2.71 6.424-1.81 1.804-3.953 2.707-6.428 2.707H45.68c-2.472 0-4.614-.904-6.422-2.708-1.807-1.817-2.712-3.95-2.712-6.424V82.226c0-2.475.902-4.615 2.712-6.423 1.81-1.805 3.95-2.712 6.423-2.712h456.816c2.47 0 4.617.905 6.42 2.713 1.808 1.81 2.71 3.95 2.71 6.423v237.542z"/></svg>