<svg xmlns="http://www.w3.org/2000/svg" viewBox="0 0 242.667 242.667" width="512" height="512"><path d="M0 0v242.667h242.667V0H0zm81.468 192.754H52.996V93.362h28.47v99.392zM67.513 82.028c-9.55 0-17.32-7.204-17.32-16.058s7.77-16.058 17.32-16.058 17.32 7.204 17.32 16.058-7.77 16.058-17.32 16.058zm124.96 110.726H163.3v-58.946c.007-.12.433-9.478-4.873-15.068-2.64-2.783-6.28-4.194-10.814-4.194-11.408 0-17.17 8.214-19.612 13.19v65.018H99.53V93.362H128v8.397c9.32-7.564 19.787-11.55 30.335-11.55 27.003 0 34.138 21.09 34.138 32.243v70.3z" fill="#FFCA26"/></svg>