<svg xmlns="http://www.w3.org/2000/svg" width="512" height="512" viewBox="0 0 32 32"><path d="M0 0v32h32V0H0zm23.754 12.022c.008.172.012.345.012.52 0 5.284-4.02 11.382-11.383 11.382-2.26 0-4.36-.66-6.133-1.797.314.035.632.055.955.055 1.875 0 3.6-.64 4.968-1.712a4.002 4.002 0 0 1-3.736-2.776 3.962 3.962 0 0 0 1.805-.073 4.003 4.003 0 0 1-3.21-3.92v-.05c.542.3 1.158.48 1.814.5a4 4 0 0 1-1.78-3.33c0-.73.198-1.42.543-2.01a11.35 11.35 0 0 0 8.243 4.18 4 4 0 0 1 6.817-3.65 8.074 8.074 0 0 0 2.543-.97 4.014 4.014 0 0 1-1.76 2.213 8.03 8.03 0 0 0 2.298-.63 8.1 8.1 0 0 1-1.994 2.07z" fill="#FFCA26"/></svg>